<svg width="24" height="24" fill="none" xmlns="http://www.w3.org/2000/svg"><defs><clipPath id="clip92_1507"><rect id="gg:menu-left" rx="-.5" width="23" height="23" transform="translate(.5 .5)" fill="#fff" fill-opacity="0"/></clipPath></defs><rect id="gg:menu-left" rx="-.5" width="23" height="23" transform="translate(.5 .5)" fill="#FFF" fill-opacity="0"/><g clip-path="url('#clip92_1507')"><path id="Vector" d="M2 5.99c0-.55.44-.99.99-.99H11c.26 0 .52.1.7.29.19.18.3.44.3.7 0 .26-.11.52-.3.7-.18.19-.44.29-.7.29H2.99c-.26 0-.52-.1-.7-.29a.967.967 0 0 1-.29-.7ZM2 12c0-.55.44-1 .99-1H21c.26 0 .52.1.7.29a1 1 0 0 1 .3.71c0 .26-.11.51-.3.7-.18.19-.44.29-.7.29H2.99c-.26 0-.52-.1-.7-.29A.984.984 0 0 1 2 12Zm.99 5.01c-.26 0-.52.1-.7.29-.19.18-.29.44-.29.7 0 .26.1.52.29.7.18.19.44.3.7.3H15c.26 0 .52-.11.7-.3.19-.18.3-.44.3-.7 0-.26-.11-.52-.3-.7a.967.967 0 0 0-.7-.29H2.99Z" fill="#F6F5EF" fill-opacity="1" fill-rule="nonzero"/></g></svg>