<svg width="217" height="23" fill="none" xmlns="http://www.w3.org/2000/svg"><defs><linearGradient x1="9.794" y1="0" x2="21.42" y2="3.632" id="paint_linear_3500_29_0" gradientUnits="userSpaceOnUse"><stop stop-color="#BEC7C2"/><stop offset="1" stop-color="#A1B5BA"/></linearGradient><clipPath id="clip3500_27"><path id="fontisto:yacht" fill="#fff" fill-opacity="0" d="M0 0h23v23H0z"/></clipPath></defs><path id="fontisto:yacht" fill="#FFF" fill-opacity="0" d="M0 0h23v23H0z"/><g clip-path="url('#clip3500_27')"><mask id="mask3500_28" mask-type="alpha" maskUnits="userSpaceOnUse" x="0" y="0" width="22.588" height="23"><path id="Vector" d="M0 18.41 5.18 23H20.4l2.18-3.07L0 18.41ZM13.4 0v18.27l7 .49L13.4 0Zm-.96 3.08L2.32 17.48l10.12.68V3.08Z" fill="#000" fill-opacity="1" fill-rule="nonzero"/></mask><g mask="url('#mask3500_28')"><path id="Rectangle 1" d="M0 0h23v23H0V0Z" fill="url('#paint_linear_3500_29_0')" fill-opacity="1" fill-rule="nonzero"/></g></g><path id="yacht Adventures" d="M60.51 18.01q-1.91 0-3.27-.81a5.433 5.433 0 0 1-2.11-2.29q-.74-1.47-.74-3.4 0-1.92.74-3.4c.49-.98 1.19-1.75 2.11-2.3q1.36-.83 3.27-.83 2.16 0 3.57 1.03l.14.1c.97.75 1.58 1.8 1.82 3.15H63.5c-.16-.68-.49-1.22-1.01-1.6q-.75-.59-2.01-.59c-1.17 0-2.08.39-2.74 1.18q-.99 1.19-.99 3.26t.99 3.26q.32.37.71.63.84.54 2.03.54c.84 0 1.51-.18 2.01-.54.52-.37.85-.88 1.01-1.53h2.54c-.24 1.3-.85 2.31-1.82 3.04l-.01.01q-.01 0-.01.01-1.44 1.08-3.69 1.08Zm151.99 0c-.92 0-1.74-.16-2.45-.47a3.97 3.97 0 0 1-1.67-1.37c-.41-.59-.62-1.32-.63-2.17h2.43c.02.58.23 1.08.63 1.49q.08.08.18.15.58.44 1.49.44c.61 0 1.1-.14 1.46-.43.36-.3.54-.69.54-1.19 0-.51-.16-.91-.49-1.2-.31-.29-.73-.52-1.26-.7-.52-.18-1.09-.38-1.69-.58-.97-.34-1.71-.77-2.23-1.3q-.14-.14-.26-.31-.5-.72-.5-1.79v-.07q0-.95.42-1.67.05-.08.11-.17.16-.23.35-.43.48-.5 1.16-.81c.63-.3 1.37-.45 2.19-.45.84 0 1.58.15 2.22.45q.79.37 1.3.97.11.14.21.29c.37.54.57 1.18.59 1.93h-2.46c-.01-.45-.19-.84-.52-1.18-.33-.34-.78-.52-1.37-.52-.51-.01-.93.12-1.28.38q-.15.12-.26.27-.24.34-.24.85c0 .42.13.75.39 1q.4.37 1.08.62c.46.17.98.34 1.57.54.62.21 1.19.46 1.71.75q.49.28.86.67.21.22.38.48c.31.47.47 1.08.47 1.82q0 .52-.14.99-.12.44-.37.85l-.08.14q-.5.75-1.41 1.23c-.66.33-1.47.5-2.43.5Zm-177.21-.22v-4.48l-4.23-8.12h2.61l2.79 5.82 2.77-5.82h2.58l-4.21 8.12v4.48h-2.31Zm6.26 0 4.61-12.6h2.59l4.61 12.6h-2.45l-1-2.91h-4.92l-1.02 2.91h-2.42Zm27.07 0V5.19h2.3v5.24h5.65V5.19h2.31v12.6h-2.31v-5.48h-5.65v5.48h-2.3Zm16.18 0V7.05h-3.67V5.19h9.66v1.86H87.1v10.74h-2.3Zm12.26 0 4.61-12.6h2.59l4.61 12.6h-2.45l-1.01-2.91h-4.91l-1.03 2.91h-2.41Zm13.97 0V5.19h4.3c1.48 0 2.69.27 3.64.8q.85.46 1.44 1.14.4.47.68 1.05c.47.94.71 2.04.71 3.32 0 1.27-.24 2.38-.71 3.33q-.24.5-.59.93-.61.76-1.53 1.26c-.95.52-2.16.77-3.64.77h-4.3Zm16.57 0-4.61-12.6h2.47l3.56 10.25 3.58-10.25h2.43l-4.6 12.6h-2.83Zm9.47 0V5.19h8.23v1.86h-5.92v3.45h5.38v1.81h-5.38v3.63h5.92v1.85h-8.23Zm10.95 0V5.19h2.3l5.92 8.88V5.19h2.31v12.6h-2.31l-5.92-8.85v8.85h-2.3Zm16.44 0V7.05h-3.67V5.19h9.67v1.86h-3.69v10.74h-2.31Zm13.11.22q-1.39 0-2.51-.54c-.74-.37-1.33-.93-1.78-1.67q-.65-1.12-.65-2.83V5.19h2.31v7.8c0 .98.23 1.72.7 2.19.48.48 1.14.72 1.98.72.83 0 1.48-.24 1.96-.72.48-.47.72-1.21.72-2.19v-7.8h2.31v7.78c0 1.14-.23 2.08-.69 2.83q-.39.63-.93 1.09-.41.34-.9.58c-.76.36-1.6.54-2.52.54Zm7.93-.22V5.19h4.62c1.01 0 1.84.18 2.49.53.66.33 1.15.8 1.47 1.38q.12.21.21.42.28.7.28 1.51c0 .77-.2 1.47-.61 2.1-.4.64-1.02 1.1-1.87 1.39l2.61 5.27h-2.65l-2.34-4.96h-1.91v4.96h-2.3Zm11.75 0V5.19h8.23v1.86h-5.92v3.45h5.38v1.81h-5.38v3.63h5.92v1.85h-8.23Zm-9.45-6.66h2.18c.77 0 1.33-.18 1.69-.55.36-.37.54-.87.54-1.48 0-.6-.18-1.08-.54-1.44-.35-.36-.92-.54-1.71-.54h-2.16v4.01Zm-74.46 4.68h1.89c1.05 0 1.89-.16 2.5-.5.61-.35 1.05-.84 1.31-1.48.27-.64.4-1.42.4-2.33 0-.9-.13-1.68-.4-2.33-.26-.65-.7-1.14-1.31-1.49q-.92-.52-2.5-.52h-1.89v8.65Zm-67.72-2.73h3.66l-1.84-5.24-1.82 5.24Zm55.51 0h3.65l-1.83-5.24-1.82 5.24Z" fill="#F6F5EF" fill-opacity="1" fill-rule="evenodd"/></svg>