<svg width="1216.949829" height="872.610840" viewBox="0 0 1216.95 872.611" fill="none" xmlns="http://www.w3.org/2000/svg" xmlns:xlink="http://www.w3.org/1999/xlink">
	<desc>
			Created with Pixso.
	</desc>
	<defs>
		<clipPath id="clip62_40">
			<rect id="u:facebook-f" rx="5.500000" width="39.000000" height="39.000000" transform="translate(1064.500000 96.000000)" fill="white" fill-opacity="0"/>
		</clipPath>
		<clipPath id="clip62_47">
			<rect id="u:instagram" rx="5.500000" width="39.000000" height="39.000000" transform="translate(1120.500000 96.000000)" fill="white" fill-opacity="0"/>
		</clipPath>
		<clipPath id="clip2_2">
			<rect id="Frame 60" width="20.000000" height="20.000000" transform="translate(1186.000000 105.500000)" fill="white" fill-opacity="0"/>
		</clipPath>
		<clipPath id="clip62_52">
			<rect id="u:youtube" rx="5.500000" width="39.000000" height="39.000000" transform="translate(1176.500000 96.000000)" fill="white" fill-opacity="0"/>
		</clipPath>
		<filter id="filter_62_89_dd" x="25.015930" y="57.933105" width="815.322205" height="814.677734" filterUnits="userSpaceOnUse" color-interpolation-filters="sRGB">
			<feFlood flood-opacity="0" result="BackgroundImageFix"/>
			<feBlend mode="normal" in="SourceGraphic" in2="BackgroundImageFix" result="shape"/>
			<feGaussianBlur stdDeviation="66.6667" result="effect_layerBlur_1"/>
		</filter>
		<filter id="filter_62_90_dd" x="499.703735" y="81.948730" width="717.246094" height="716.753906" filterUnits="userSpaceOnUse" color-interpolation-filters="sRGB">
			<feFlood flood-opacity="0" result="BackgroundImageFix"/>
			<feBlend mode="normal" in="SourceGraphic" in2="BackgroundImageFix" result="shape"/>
			<feGaussianBlur stdDeviation="66.6667" result="effect_layerBlur_1"/>
		</filter>
		<clipPath id="clip3500_27">
			<rect id="fontisto:yacht" width="23.000000" height="23.000000" transform="translate(0.000000 64.500000)" fill="white" fill-opacity="0"/>
		</clipPath>
		<linearGradient x1="9.793955" y1="64.500008" x2="21.420328" y2="68.131584" id="paint_linear_3500_29_0" gradientUnits="userSpaceOnUse">
			<stop stop-color="#BEC7C2"/>
			<stop offset="1.000000" stop-color="#A1B5BA"/>
		</linearGradient>
	</defs>
	<path id="2023. Yacht Adventures" d="M530.72 270.42L530.72 280.5L531.9 280.5L531.9 276.9Q531.9 275.73 532.48 275.08Q532.49 275.06 532.51 275.04Q532.81 274.73 533.17 274.57Q533.56 274.39 534.04 274.39Q534.73 274.39 535.14 274.73Q535.79 275.25 535.79 276.56L535.79 280.5L536.95 280.5L536.95 276.43Q536.95 274.88 536.22 274.13Q536.02 273.93 535.78 273.78Q535.16 273.38 534.29 273.38Q533.84 273.38 533.44 273.51Q533.15 273.59 532.89 273.74Q532.57 273.92 532.32 274.17Q532.07 274.42 531.9 274.74L531.9 270.42L530.72 270.42ZM559.93 280.27Q560.66 280.66 561.6 280.66Q562.56 280.66 563.19 280.26Q563.81 279.85 564.15 279.35L564.26 280.5L565.33 280.5L565.33 270.42L564.15 270.42L564.15 274.71Q564 274.45 563.8 274.24Q563.51 273.94 563.13 273.73Q562.47 273.38 561.62 273.38Q560.59 273.38 559.83 273.83Q559.82 273.84 559.8 273.85Q559.5 274.04 559.25 274.28Q558.86 274.64 558.59 275.14Q558.16 275.96 558.16 277.01Q558.16 278.06 558.58 278.89Q558.83 279.36 559.2 279.73Q559.46 279.99 559.79 280.19Q559.86 280.23 559.93 280.27ZM464.11 279.67L464.11 280.5L470.57 280.5L470.57 279.51L465.84 279.51Q466.5 278.97 467.26 278.28Q467.37 278.19 467.48 278.08Q468.12 277.48 468.7 276.81Q469.37 276.01 469.81 275.17Q470.2 274.4 470.24 273.62Q470.24 273.54 470.24 273.45Q470.24 272.2 469.62 271.48Q469.52 271.36 469.41 271.26Q469.24 271.12 469.06 271.01Q468.32 270.53 467.27 270.53Q466.43 270.53 465.75 270.87Q465.72 270.88 465.69 270.89Q465.38 271.05 465.13 271.27Q464.81 271.56 464.58 271.95Q464.18 272.64 464.18 273.61L465.31 273.61Q465.31 273.19 465.44 272.82Q465.47 272.7 465.53 272.59Q465.64 272.34 465.81 272.15Q465.97 271.96 466.18 271.82Q466.61 271.54 467.26 271.54Q467.93 271.54 468.32 271.81Q468.51 271.94 468.65 272.11Q468.8 272.29 468.89 272.53Q469.06 272.98 469.06 273.5Q469.06 274.2 468.66 274.95Q468.27 275.71 467.57 276.49Q466.88 277.28 465.99 278.08Q465.1 278.89 464.11 279.67ZM474.37 280.18Q475.23 280.66 476.37 280.66Q477.52 280.66 478.39 280.16Q478.5 280.1 478.61 280.03Q478.81 279.89 478.98 279.74Q479.65 279.15 480.05 278.25Q480.56 277.11 480.56 275.59Q480.56 274.08 480.05 272.94Q479.65 272.03 478.97 271.44Q478.8 271.29 478.61 271.16Q478.5 271.09 478.39 271.03Q477.52 270.53 476.37 270.53Q475.23 270.53 474.37 271.01Q474.24 271.08 474.12 271.16Q473.92 271.3 473.75 271.45Q473.07 272.04 472.68 272.94Q472.17 274.08 472.17 275.59Q472.17 277.11 472.68 278.25Q473.07 279.14 473.73 279.72Q473.92 279.89 474.12 280.03Q474.24 280.11 474.37 280.18ZM482.38 279.67L482.38 280.5L488.84 280.5L488.84 279.51L484.11 279.51Q484.77 278.97 485.53 278.28Q485.64 278.19 485.75 278.08Q486.39 277.48 486.97 276.81Q487.64 276.01 488.08 275.17Q488.47 274.4 488.51 273.62Q488.51 273.54 488.51 273.45Q488.51 272.2 487.89 271.48Q487.79 271.36 487.68 271.26Q487.51 271.12 487.33 271.01Q486.59 270.53 485.54 270.53Q484.7 270.53 484.02 270.87Q483.99 270.88 483.96 270.89Q483.65 271.05 483.4 271.27Q483.08 271.56 482.85 271.95Q482.45 272.64 482.45 273.61L483.58 273.61Q483.58 273.19 483.71 272.82Q483.74 272.7 483.8 272.59Q483.91 272.34 484.08 272.15Q484.24 271.96 484.45 271.82Q484.88 271.54 485.53 271.54Q486.2 271.54 486.59 271.81Q486.78 271.94 486.92 272.11Q487.07 272.29 487.16 272.53Q487.33 272.98 487.33 273.5Q487.33 274.2 486.93 274.95Q486.54 275.71 485.84 276.49Q485.15 277.28 484.26 278.08Q483.37 278.89 482.38 279.67ZM492.32 280.32Q493.07 280.66 494.01 280.66Q495.09 280.66 495.82 280.26Q496.35 279.96 496.69 279.51Q496.82 279.35 496.91 279.17Q497.03 278.95 497.12 278.72Q497.29 278.23 497.29 277.68Q497.29 276.78 496.86 276.18Q496.79 276.08 496.71 275.99Q496.47 275.72 496.17 275.52Q495.77 275.27 495.27 275.16Q495.88 275 496.27 274.62Q496.39 274.49 496.49 274.34Q496.68 274.06 496.78 273.75Q496.9 273.39 496.9 272.99Q496.9 272.58 496.77 272.2Q496.69 271.97 496.56 271.76Q496.51 271.66 496.44 271.57Q496.13 271.14 495.6 270.86Q494.97 270.53 494.01 270.53Q493.13 270.53 492.46 270.87Q492.05 271.08 491.75 271.39Q491.55 271.59 491.4 271.83Q491.34 271.92 491.3 272.01Q491.01 272.56 490.97 273.24L492.16 273.24Q492.2 272.79 492.4 272.43Q492.53 272.21 492.71 272.03Q492.82 271.93 492.94 271.85Q493.38 271.55 494.01 271.55Q494.84 271.55 495.27 271.96Q495.27 271.97 495.28 271.98Q495.43 272.13 495.53 272.32Q495.71 272.64 495.71 273.06Q495.71 273.58 495.47 273.94Q495.35 274.13 495.17 274.28Q494.63 274.71 493.68 274.71L492.95 274.71L492.95 275.71L493.68 275.71Q494.33 275.71 494.89 275.92Q495.31 276.08 495.6 276.37Q495.69 276.46 495.77 276.56Q496.1 277 496.1 277.68Q496.1 278.15 495.92 278.54Q495.79 278.82 495.57 279.07Q495.52 279.13 495.46 279.18Q494.94 279.64 494.01 279.64Q493.16 279.64 492.62 279.23Q492.51 279.14 492.4 279.03Q492.12 278.73 491.97 278.38Q491.82 278.01 491.81 277.58L490.62 277.58Q490.65 278.6 491.11 279.29Q491.32 279.61 491.59 279.85Q491.91 280.14 492.32 280.32ZM509.33 276.77L509.33 280.5L510.5 280.5L510.5 276.77L513.68 270.7L512.37 270.7L509.92 275.65L507.47 270.7L506.14 270.7L509.33 276.77ZM552.18 270.7L548.57 280.5L549.8 280.5L550.71 277.98L554.88 277.98L555.78 280.5L557.03 280.5L553.43 270.7L552.18 270.7ZM477.3 279.47Q476.86 279.63 476.37 279.63Q475.83 279.63 475.36 279.44Q475.08 279.32 474.83 279.15Q474.16 278.66 473.77 277.76Q473.38 276.85 473.38 275.59Q473.38 274.34 473.77 273.44Q474.16 272.54 474.83 272.06Q475.08 271.88 475.36 271.77Q475.83 271.58 476.37 271.58Q476.86 271.58 477.3 271.74Q477.61 271.85 477.9 272.06Q478.58 272.54 478.97 273.44Q479.35 274.34 479.35 275.59Q479.35 276.85 478.97 277.76Q478.58 278.66 477.9 279.15Q477.61 279.35 477.3 279.47ZM540.39 280.03Q540.94 280.5 541.89 280.5L542.96 280.5L542.96 279.49L542.23 279.49Q541.56 279.49 541.29 279.26Q541.02 279.03 541.02 278.37L541.02 274.54L543.07 274.54L543.07 273.55L541.02 273.55L541.02 271.89L540 271.89L539.85 273.55L538.64 273.55L538.64 274.54L539.85 274.54L539.85 278.37Q539.85 279.57 540.39 280.03ZM593.09 280.03Q593.64 280.5 594.59 280.5L595.65 280.5L595.65 279.49L594.92 279.49Q594.25 279.49 593.98 279.26Q593.72 279.03 593.72 278.37L593.72 274.54L595.77 274.54L595.77 273.55L593.72 273.55L593.72 271.89L592.7 271.89L592.54 273.55L591.34 273.55L591.34 274.54L592.54 274.54L592.54 278.37Q592.54 279.57 593.09 280.03ZM552.8 272.18L554.53 277.02L551.06 277.02L552.8 272.18ZM515.19 280.37Q515.77 280.66 516.63 280.66Q517.59 280.66 518.15 280.25Q518.6 279.92 518.88 279.49Q518.95 279.37 519.02 279.25L519.08 280.5L520.13 280.5L520.13 276.23Q520.13 275.17 519.64 274.45Q519.53 274.3 519.4 274.16Q519.35 274.11 519.29 274.06Q518.56 273.38 517.21 273.38Q516.65 273.38 516.15 273.54Q515.97 273.59 515.81 273.66Q515.35 273.85 515 274.15Q514.84 274.29 514.71 274.45Q514.62 274.56 514.54 274.67Q514.25 275.12 514.2 275.72L515.4 275.72Q515.49 275.27 515.75 274.97Q515.87 274.83 516.03 274.72Q516.11 274.66 516.21 274.61Q516.65 274.38 517.21 274.38Q517.85 274.38 518.28 274.68Q518.39 274.75 518.48 274.85Q518.5 274.87 518.52 274.89Q518.96 275.35 518.96 276.23L518.96 276.31L517.09 276.31Q515.68 276.31 514.87 276.88Q514.53 277.12 514.33 277.45Q514.06 277.9 514.06 278.52Q514.06 278.84 514.15 279.13Q514.21 279.37 514.34 279.59Q514.37 279.64 514.4 279.69Q514.68 280.1 515.19 280.37ZM524.03 280.36Q524.71 280.66 525.51 280.66Q526.51 280.66 527.26 280.23Q527.43 280.13 527.6 280.01Q528.04 279.66 528.31 279.22Q528.56 278.8 528.66 278.3L527.46 278.3Q527.38 278.65 527.19 278.92Q527.02 279.15 526.77 279.31Q526.68 279.37 526.58 279.42Q526.1 279.67 525.5 279.67Q525.25 279.67 525.01 279.61Q524.69 279.54 524.39 279.37Q524.33 279.33 524.27 279.29Q523.83 279 523.55 278.48Q523.23 277.89 523.23 277.02Q523.23 276.15 523.55 275.57Q523.84 275.04 524.27 274.76Q524.33 274.72 524.39 274.68Q524.68 274.52 524.99 274.45Q525.24 274.39 525.5 274.39Q526.09 274.39 526.56 274.63Q526.67 274.68 526.77 274.75Q527.04 274.92 527.21 275.16Q527.39 275.42 527.46 275.75L528.66 275.75Q528.53 275.14 528.21 274.67Q527.96 274.31 527.59 274.03Q527.45 273.92 527.3 273.83Q526.54 273.38 525.51 273.38Q524.71 273.38 524.03 273.68Q523.88 273.75 523.73 273.84Q523.41 274.02 523.15 274.26Q522.75 274.62 522.48 275.11Q522.03 275.93 522.03 277.02Q522.03 278.12 522.48 278.94Q522.75 279.42 523.13 279.77Q523.4 280.02 523.73 280.21Q523.88 280.29 524.03 280.36ZM576.59 280.32Q577.28 280.66 578.15 280.66Q579.27 280.66 580.02 280.14Q580.1 280.09 580.17 280.03Q580.6 279.68 580.88 279.24Q581.12 278.87 581.24 278.42L580.08 278.42Q579.95 278.76 579.72 279.02Q579.57 279.2 579.37 279.33Q578.88 279.67 578.15 279.67Q577.89 279.67 577.64 279.61Q577.36 279.54 577.09 279.41Q577.02 279.37 576.95 279.32Q576.55 279.06 576.27 278.61Q575.94 278.09 575.9 277.29L581.43 277.29Q581.43 277.09 581.43 276.94Q581.44 276.79 581.44 276.63Q581.44 276.14 581.31 275.69Q581.22 275.35 581.05 275.04Q580.89 274.73 580.67 274.48Q580.36 274.11 579.92 273.84Q579.91 273.83 579.89 273.82Q579.17 273.38 578.18 273.38Q577.22 273.38 576.47 273.79Q576.43 273.81 576.38 273.84Q576.07 274.02 575.82 274.25Q575.43 274.62 575.17 275.11Q574.74 275.93 574.74 277.02Q574.74 278.13 575.18 278.94Q575.45 279.44 575.84 279.8Q576.09 280.03 576.39 280.21Q576.49 280.27 576.59 280.32ZM583.42 273.55L583.42 280.5L584.59 280.5L584.59 276.9Q584.59 275.69 585.19 275.04Q585.47 274.73 585.83 274.57Q586.21 274.39 586.68 274.39Q587.4 274.39 587.83 274.75Q588.47 275.27 588.47 276.56L588.47 280.5L589.64 280.5L589.64 276.43Q589.64 274.88 588.91 274.13Q588.73 273.95 588.51 273.81Q587.87 273.38 586.94 273.38Q586.31 273.38 585.79 273.62Q585.65 273.68 585.52 273.76Q585.23 273.94 585 274.17Q584.73 274.44 584.55 274.8L584.48 273.55L583.42 273.55ZM606.11 273.55L606.11 280.5L607.29 280.5L607.29 277Q607.29 276.09 607.59 275.57Q607.81 275.21 608.12 275Q608.26 274.9 608.42 274.84Q608.94 274.62 609.55 274.62L609.87 274.62L609.87 273.38Q608.91 273.38 608.25 273.79Q607.89 274.01 607.63 274.33Q607.42 274.58 607.27 274.88L607.17 273.55L606.11 273.55ZM612.9 280.32Q613.6 280.66 614.47 280.66Q615.58 280.66 616.34 280.14Q616.41 280.09 616.49 280.03Q616.92 279.68 617.19 279.24Q617.43 278.87 617.56 278.42L616.4 278.42Q616.27 278.76 616.04 279.02Q615.88 279.2 615.68 279.33Q615.2 279.67 614.47 279.67Q614.2 279.67 613.95 279.61Q613.67 279.54 613.41 279.41Q613.34 279.37 613.27 279.32Q612.87 279.06 612.58 278.61Q612.26 278.09 612.21 277.29L617.74 277.29Q617.74 277.09 617.75 276.94Q617.76 276.79 617.76 276.63Q617.76 276.14 617.63 275.69Q617.53 275.35 617.37 275.04Q617.21 274.73 616.99 274.48Q616.67 274.11 616.24 273.84Q616.22 273.83 616.21 273.82Q615.48 273.38 614.49 273.38Q613.53 273.38 612.79 273.79Q612.74 273.81 612.7 273.84Q612.39 274.02 612.14 274.25Q611.75 274.62 611.49 275.11Q611.05 275.93 611.05 277.02Q611.05 278.13 611.49 278.94Q611.76 279.44 612.16 279.8Q612.4 280.03 612.7 280.21Q612.8 280.27 612.9 280.32ZM620.46 280.13Q621.25 280.66 622.39 280.66Q623.62 280.66 624.34 280.06L624.34 280.05Q624.71 279.75 624.88 279.35Q625.06 278.97 625.05 278.51Q625.05 277.75 624.68 277.35Q624.67 277.35 624.67 277.34Q624.3 276.95 623.73 276.75Q623.15 276.55 622.5 276.41Q621.75 276.24 621.31 276Q621.01 275.85 620.91 275.61Q620.86 275.49 620.86 275.34Q620.86 275.13 620.95 274.95Q621.03 274.78 621.21 274.64Q621.55 274.38 622.18 274.38Q622.83 274.38 623.21 274.68Q623.34 274.78 623.43 274.91Q623.62 275.16 623.67 275.51L624.83 275.51Q624.75 274.78 624.36 274.29Q624.21 274.09 624.01 273.94Q623.97 273.91 623.93 273.88Q623.24 273.38 622.2 273.38Q621.06 273.38 620.38 273.94Q620.37 273.95 620.35 273.96Q620.03 274.24 619.86 274.59Q619.67 274.98 619.67 275.45Q619.67 275.94 619.9 276.28Q619.96 276.38 620.05 276.47Q620.43 276.85 620.99 277.07Q621.55 277.28 622.11 277.39Q622.94 277.56 623.39 277.77Q623.53 277.83 623.63 277.94Q623.85 278.17 623.85 278.6Q623.85 278.77 623.8 278.91Q623.71 279.16 623.5 279.35Q623.15 279.67 622.4 279.67Q621.61 279.67 621.14 279.28L621.14 279.27Q620.8 278.98 620.64 278.61Q620.59 278.47 620.56 278.32L619.35 278.32Q619.44 278.96 619.75 279.43Q619.97 279.77 620.32 280.03Q620.39 280.09 620.46 280.13ZM567.03 273.55L569.67 280.5L571.03 280.5L573.66 273.55L572.45 273.55L570.35 279.36L568.27 273.55L567.03 273.55ZM598.63 280.23Q599.28 280.66 600.21 280.66Q600.82 280.66 601.34 280.44Q601.5 280.38 601.65 280.29Q601.99 280.08 602.24 279.8Q602.46 279.55 602.61 279.25L602.69 280.5L603.76 280.5L603.76 273.55L602.58 273.55L602.58 277.15Q602.58 278.35 601.99 279.01Q601.72 279.3 601.39 279.46Q600.98 279.65 600.48 279.65Q599.77 279.65 599.34 279.3Q598.7 278.78 598.7 277.48L598.7 273.55L597.53 273.55L597.53 277.61Q597.53 279.17 598.26 279.91Q598.43 280.09 598.63 280.23ZM577.31 274.52Q577.71 274.38 578.15 274.38Q578.75 274.38 579.22 274.62Q579.44 274.74 579.63 274.91Q579.78 275.04 579.9 275.2Q580.25 275.67 580.28 276.38L575.91 276.38Q575.99 275.62 576.39 275.14Q576.51 275 576.66 274.89Q576.96 274.65 577.31 274.52ZM613.63 274.52Q614.02 274.38 614.47 274.38Q615.07 274.38 615.54 274.62Q615.76 274.74 615.95 274.91Q616.1 275.04 616.21 275.2Q616.56 275.67 616.6 276.38L612.23 276.38Q612.3 275.62 612.71 275.14Q612.83 275 612.97 274.89Q613.28 274.65 613.63 274.52ZM562.81 279.4Q562.33 279.64 561.73 279.64Q561.19 279.64 560.75 279.44Q560.62 279.38 560.5 279.31Q560.32 279.2 560.17 279.06Q559.86 278.79 559.66 278.4Q559.36 277.81 559.36 277.02Q559.36 276.24 559.66 275.65Q559.86 275.26 560.17 274.99Q560.32 274.85 560.5 274.74Q560.63 274.66 560.76 274.6Q561.2 274.4 561.73 274.4Q562.32 274.4 562.79 274.64Q562.88 274.68 562.97 274.74Q563.16 274.85 563.32 275Q563.61 275.27 563.81 275.65Q564.11 276.24 564.11 277.02Q564.11 277.81 563.81 278.4Q563.61 278.78 563.32 279.05Q563.16 279.2 562.97 279.31Q562.89 279.36 562.81 279.4ZM517.77 279.44Q517.36 279.67 516.82 279.67Q516.09 279.67 515.69 279.34Q515.52 279.2 515.42 279.02Q515.29 278.78 515.29 278.47Q515.29 278.23 515.37 278.03Q515.48 277.77 515.72 277.58Q516.15 277.22 517.18 277.22L518.96 277.22L518.96 277.23Q518.96 277.54 518.89 277.84Q518.83 278.13 518.71 278.41Q518.56 278.74 518.32 279Q518.17 279.18 517.97 279.32Q517.88 279.39 517.77 279.44ZM499.56 280.48Q499.73 280.56 499.95 280.56Q500.14 280.56 500.3 280.49Q500.42 280.43 500.51 280.33Q500.62 280.23 500.68 280.09Q500.75 279.95 500.75 279.77Q500.75 279.59 500.68 279.43Q500.62 279.31 500.51 279.2Q500.41 279.1 500.29 279.04Q500.14 278.97 499.95 278.97Q499.74 278.97 499.57 279.05Q499.46 279.11 499.37 279.2Q499.26 279.3 499.21 279.43Q499.14 279.58 499.14 279.77Q499.14 279.95 499.2 280.1Q499.26 280.23 499.37 280.33Q499.45 280.42 499.56 280.48Z" fill="#F6F5EF" fill-opacity="0.500000" fill-rule="evenodd"/>
	<path id="Privacy Police" d="M673.62 271.92Q673.8 272.01 674.02 272.01Q674.2 272.01 674.35 271.95Q674.48 271.89 674.59 271.78Q674.69 271.69 674.75 271.57Q674.83 271.41 674.83 271.2Q674.83 271.02 674.76 270.87Q674.7 270.74 674.59 270.64Q674.48 270.54 674.35 270.48Q674.2 270.42 674.02 270.42Q673.79 270.42 673.61 270.51Q673.52 270.56 673.43 270.64Q673.34 270.73 673.28 270.85Q673.2 271 673.2 271.2Q673.2 271.42 673.3 271.6Q673.35 271.7 673.43 271.78Q673.52 271.87 673.62 271.92ZM729.99 270.42L729.99 280.5L731.17 280.5L731.17 270.42L729.99 270.42ZM733.84 271.92Q734.01 272.01 734.23 272.01Q734.41 272.01 734.56 271.95Q734.69 271.89 734.8 271.78Q734.9 271.69 734.96 271.57Q735.04 271.41 735.04 271.2Q735.04 271.02 734.97 270.87Q734.91 270.74 734.8 270.64Q734.7 270.54 734.57 270.48Q734.42 270.42 734.23 270.42Q734 270.42 733.83 270.51Q733.73 270.56 733.65 270.64Q733.55 270.73 733.5 270.85Q733.42 271 733.42 271.2Q733.42 271.42 733.51 271.6Q733.56 271.7 733.65 271.78Q733.73 271.87 733.84 271.92ZM659.34 270.7L659.34 280.5L660.52 280.5L660.52 276.41L662.56 276.41Q663.73 276.41 664.47 276.02Q665.12 275.69 665.46 275.15Q665.51 275.08 665.56 275Q665.62 274.89 665.67 274.78Q665.91 274.22 665.91 273.55Q665.91 272.85 665.64 272.27Q665.6 272.18 665.55 272.1Q665.49 271.99 665.42 271.89Q665.07 271.39 664.45 271.07Q663.71 270.7 662.56 270.7L659.34 270.7ZM713.23 270.7L713.23 280.5L714.41 280.5L714.41 276.41L716.45 276.41Q717.61 276.41 718.35 276.02Q719 275.69 719.35 275.15Q719.4 275.08 719.44 275Q719.5 274.89 719.55 274.78Q719.8 274.22 719.8 273.55Q719.8 272.85 719.53 272.27Q719.49 272.18 719.44 272.1Q719.38 271.99 719.31 271.89Q718.96 271.39 718.34 271.07Q717.6 270.7 716.45 270.7L713.23 270.7ZM662.54 275.41L660.52 275.41L660.52 271.68L662.54 271.68Q663.71 271.68 664.21 272.17Q664.28 272.24 664.34 272.32Q664.71 272.79 664.71 273.55Q664.71 274.27 664.36 274.74Q664.29 274.83 664.21 274.92Q663.71 275.41 662.54 275.41ZM716.42 275.41L714.41 275.41L714.41 271.68L716.42 271.68Q717.6 271.68 718.09 272.17Q718.17 272.24 718.23 272.32Q718.59 272.79 718.59 273.55Q718.59 274.27 718.25 274.74Q718.18 274.83 718.09 274.92Q717.6 275.41 716.42 275.41ZM667.8 273.55L667.8 280.5L668.98 280.5L668.98 277Q668.98 276.09 669.29 275.57Q669.5 275.21 669.81 275Q669.95 274.9 670.11 274.84Q670.63 274.62 671.24 274.62L671.56 274.62L671.56 273.38Q670.6 273.38 669.94 273.79Q669.58 274.01 669.32 274.33Q669.11 274.58 668.96 274.88L668.86 273.55L667.8 273.55ZM685.3 280.37Q685.88 280.66 686.74 280.66Q687.69 280.66 688.26 280.25Q688.71 279.92 688.99 279.49Q689.06 279.37 689.12 279.25L689.19 280.5L690.24 280.5L690.24 276.23Q690.24 275.17 689.74 274.45Q689.64 274.3 689.51 274.16Q689.46 274.11 689.4 274.06Q688.67 273.38 687.32 273.38Q686.76 273.38 686.25 273.54Q686.08 273.59 685.91 273.66Q685.46 273.85 685.11 274.15Q684.95 274.29 684.82 274.45Q684.72 274.56 684.65 274.67Q684.36 275.12 684.31 275.72L685.51 275.72Q685.6 275.27 685.85 274.97Q685.97 274.83 686.13 274.72Q686.22 274.66 686.31 274.61Q686.75 274.38 687.32 274.38Q687.95 274.38 688.39 274.68Q688.49 274.75 688.59 274.85Q688.61 274.87 688.63 274.89Q689.07 275.35 689.07 276.23L689.07 276.31L687.19 276.31Q685.79 276.31 684.98 276.88Q684.64 277.12 684.44 277.45Q684.17 277.9 684.17 278.52Q684.17 278.84 684.25 279.13Q684.32 279.37 684.45 279.59Q684.48 279.64 684.51 279.69Q684.79 280.1 685.3 280.37ZM694.14 280.36Q694.81 280.66 695.62 280.66Q696.62 280.66 697.36 280.23Q697.54 280.13 697.71 280.01Q698.15 279.66 698.42 279.22Q698.67 278.8 698.77 278.3L697.57 278.3Q697.49 278.65 697.29 278.92Q697.13 279.15 696.88 279.31Q696.78 279.37 696.69 279.42Q696.21 279.67 695.6 279.67Q695.35 279.67 695.12 279.61Q694.8 279.54 694.5 279.37Q694.43 279.33 694.38 279.29Q693.94 279 693.66 278.48Q693.34 277.89 693.34 277.02Q693.34 276.15 693.66 275.57Q693.94 275.04 694.38 274.76Q694.44 274.72 694.5 274.68Q694.79 274.52 695.1 274.45Q695.34 274.39 695.6 274.39Q696.2 274.39 696.67 274.63Q696.78 274.68 696.88 274.75Q697.14 274.92 697.31 275.16Q697.49 275.42 697.57 275.75L698.77 275.75Q698.64 275.14 698.32 274.67Q698.07 274.31 697.7 274.03Q697.56 273.92 697.41 273.83Q696.65 273.38 695.62 273.38Q694.81 273.38 694.14 273.68Q693.98 273.75 693.83 273.84Q693.52 274.02 693.26 274.26Q692.86 274.62 692.59 275.11Q692.13 275.93 692.13 277.02Q692.13 278.12 692.59 278.94Q692.86 279.42 693.24 279.77Q693.51 280.02 693.83 280.21Q693.98 280.29 694.14 280.36ZM723.02 280.38Q723.67 280.66 724.44 280.66Q725.22 280.66 725.88 280.38Q726.05 280.31 726.21 280.22Q726.53 280.04 726.79 279.8Q727.19 279.44 727.47 278.95Q727.93 278.13 727.93 277.02Q727.93 275.92 727.48 275.1Q727.19 274.59 726.78 274.22Q726.53 274 726.23 273.83Q726.08 273.74 725.91 273.67Q725.25 273.38 724.47 273.38Q723.71 273.38 723.05 273.66Q722.87 273.73 722.7 273.83Q722.4 274 722.16 274.22Q721.74 274.59 721.45 275.1Q720.99 275.92 720.99 277.02Q720.99 278.13 721.44 278.95Q721.73 279.46 722.14 279.83Q722.39 280.05 722.68 280.22Q722.85 280.31 723.02 280.38ZM739 280.36Q739.67 280.66 740.48 280.66Q741.47 280.66 742.22 280.23Q742.4 280.13 742.56 280.01Q743 279.66 743.27 279.22Q743.52 278.8 743.62 278.3L742.42 278.3Q742.34 278.65 742.15 278.92Q741.98 279.15 741.73 279.31Q741.64 279.37 741.54 279.42Q741.06 279.67 740.46 279.67Q740.21 279.67 739.97 279.61Q739.65 279.54 739.35 279.37Q739.29 279.33 739.23 279.29Q738.8 279 738.51 278.48Q738.19 277.89 738.19 277.02Q738.19 276.15 738.51 275.57Q738.8 275.04 739.24 274.76Q739.29 274.72 739.35 274.68Q739.64 274.52 739.95 274.45Q740.2 274.39 740.46 274.39Q741.05 274.39 741.53 274.63Q741.63 274.68 741.73 274.75Q742 274.92 742.17 275.16Q742.35 275.42 742.42 275.75L743.62 275.75Q743.5 275.14 743.17 274.67Q742.92 274.31 742.55 274.03Q742.41 273.92 742.26 273.83Q741.5 273.38 740.48 273.38Q739.67 273.38 739 273.68Q738.84 273.75 738.69 273.84Q738.37 274.02 738.11 274.26Q737.72 274.62 737.44 275.11Q736.99 275.93 736.99 277.02Q736.99 278.12 737.44 278.94Q737.71 279.42 738.1 279.77Q738.37 280.02 738.69 280.21Q738.84 280.29 739 280.36ZM747.24 280.32Q747.94 280.66 748.8 280.66Q749.92 280.66 750.67 280.14Q750.75 280.09 750.82 280.03Q751.25 279.68 751.53 279.24Q751.77 278.87 751.9 278.42L750.74 278.42Q750.6 278.76 750.38 279.02Q750.22 279.2 750.02 279.33Q749.53 279.67 748.8 279.67Q748.54 279.67 748.29 279.61Q748.01 279.54 747.74 279.41Q747.67 279.37 747.61 279.32Q747.2 279.06 746.92 278.61Q746.59 278.09 746.55 277.29L752.08 277.29Q752.08 277.09 752.09 276.94Q752.1 276.79 752.1 276.63Q752.1 276.14 751.97 275.69Q751.87 275.35 751.7 275.04Q751.54 274.73 751.33 274.48Q751.01 274.11 750.57 273.84Q750.56 273.83 750.54 273.82Q749.82 273.38 748.83 273.38Q747.87 273.38 747.13 273.79Q747.08 273.81 747.03 273.84Q746.73 274.02 746.47 274.25Q746.09 274.62 745.82 275.11Q745.39 275.93 745.39 277.02Q745.39 278.13 745.83 278.94Q746.1 279.44 746.49 279.8Q746.74 280.03 747.04 280.21Q747.14 280.27 747.24 280.32ZM673.43 273.55L673.43 280.5L674.61 280.5L674.61 273.55L673.43 273.55ZM676.44 273.55L679.07 280.5L680.43 280.5L683.06 273.55L681.85 273.55L679.76 279.36L677.67 273.55L676.44 273.55ZM703.31 279.82L701.58 283.57L702.81 283.57L707.36 273.55L706.15 273.55L703.71 278.95L701.42 273.55L700.14 273.55L702.9 279.82L703.31 279.82ZM733.64 273.55L733.64 280.5L734.82 280.5L734.82 273.55L733.64 273.55ZM747.97 274.52Q748.36 274.38 748.8 274.38Q749.41 274.38 749.88 274.62Q750.1 274.74 750.29 274.91Q750.44 275.04 750.55 275.2Q750.9 275.67 750.93 276.38L746.57 276.38Q746.64 275.62 747.05 275.14Q747.16 275 747.31 274.89Q747.62 274.65 747.97 274.52ZM725.06 279.57Q724.76 279.65 724.44 279.65Q724.16 279.65 723.9 279.59Q723.61 279.51 723.34 279.36Q723.3 279.34 723.27 279.31Q722.81 279.02 722.51 278.48Q722.19 277.89 722.19 277.02Q722.19 276.15 722.51 275.57Q722.8 275.04 723.23 274.76Q723.29 274.72 723.35 274.68Q723.58 274.55 723.83 274.48Q724.14 274.39 724.47 274.39Q724.75 274.39 725 274.45Q725.3 274.53 725.58 274.68Q725.66 274.73 725.74 274.78Q726.15 275.07 726.41 275.57Q726.73 276.15 726.73 277.02Q726.73 277.89 726.41 278.48Q726.13 278.99 725.7 279.28Q725.63 279.32 725.56 279.36Q725.32 279.5 725.06 279.57ZM687.88 279.44Q687.46 279.67 686.93 279.67Q686.2 279.67 685.8 279.34Q685.63 279.2 685.53 279.02Q685.4 278.78 685.4 278.47Q685.4 278.23 685.48 278.03Q685.59 277.77 685.82 277.58Q686.25 277.22 687.29 277.22L689.07 277.22L689.07 277.23Q689.07 277.54 689 277.84Q688.94 278.13 688.81 278.41Q688.66 278.74 688.43 279Q688.27 279.18 688.08 279.32Q687.98 279.39 687.88 279.44Z" fill="#F6F5EF" fill-opacity="0.500000" fill-rule="evenodd"/>
	<path id="Vector 2" d="M0.5 0.5L1216.5 0.5" stroke="#F6F5EF" stroke-opacity="0.200000" stroke-width="1.000000"/>
	<path id="We in social" d="M1109.07 76.29Q1109.91 76.66 1110.98 76.66Q1112.1 76.66 1112.87 76.27Q1113.57 75.9 1113.96 75.33Q1114 75.27 1114.03 75.21Q1114.22 74.89 1114.31 74.55Q1114.43 74.18 1114.43 73.78Q1114.43 72.91 1114.06 72.36Q1113.93 72.18 1113.8 72.02Q1113.5 71.7 1113.1 71.47Q1112.5 71.13 1111.77 70.88Q1111.07 70.66 1110.55 70.46Q1110.02 70.26 1109.71 69.98Q1109.63 69.9 1109.56 69.81Q1109.4 69.56 1109.4 69.2Q1109.4 68.81 1109.57 68.55Q1109.67 68.42 1109.8 68.33Q1109.86 68.28 1109.92 68.25Q1110.28 68.03 1110.79 68.04Q1111.36 68.04 1111.72 68.31Q1111.79 68.37 1111.86 68.44Q1112.1 68.68 1112.18 68.98Q1112.25 69.16 1112.26 69.35L1114.17 69.35Q1114.15 68.57 1113.8 67.98Q1113.76 67.92 1113.72 67.86Q1113.62 67.71 1113.51 67.58Q1113.12 67.15 1112.54 66.88Q1111.8 66.53 1110.81 66.53Q1109.85 66.53 1109.11 66.87Q1108.55 67.13 1108.16 67.55Q1108.04 67.69 1107.93 67.84Q1107.88 67.92 1107.82 68.01Q1107.52 68.58 1107.53 69.33Q1107.53 70.15 1107.91 70.7Q1108 70.84 1108.12 70.96Q1108.72 71.58 1109.85 71.97Q1110.55 72.21 1111.16 72.42Q1111.78 72.63 1112.15 72.97Q1112.24 73.05 1112.31 73.14Q1112.52 73.44 1112.52 73.9Q1112.52 74.23 1112.39 74.49Q1112.28 74.68 1112.1 74.82Q1111.68 75.17 1110.97 75.17Q1110.27 75.17 1109.82 74.83Q1109.75 74.77 1109.67 74.7Q1109.46 74.49 1109.34 74.24Q1109.18 73.92 1109.18 73.54L1107.29 73.54Q1107.3 74.5 1107.74 75.18Q1107.76 75.21 1107.78 75.23Q1107.89 75.4 1108.03 75.55Q1108.46 76.01 1109.07 76.29ZM1118.04 76.04Q1119.14 76.66 1120.59 76.66Q1121.98 76.66 1123.05 76.08Q1123.1 76.05 1123.15 76.02Q1123.67 75.72 1124.07 75.31Q1124.54 74.84 1124.87 74.24Q1125.49 73.09 1125.49 71.59Q1125.49 70.1 1124.87 68.96Q1124.54 68.33 1124.06 67.86Q1123.65 67.46 1123.15 67.17Q1123.1 67.14 1123.05 67.11Q1121.98 66.53 1120.59 66.53Q1119.14 66.53 1118.04 67.16Q1118.03 67.16 1118.02 67.17Q1117.56 67.44 1117.18 67.79Q1116.66 68.29 1116.29 68.96Q1115.67 70.1 1115.67 71.59Q1115.67 73.09 1116.29 74.24Q1116.65 74.89 1117.16 75.37Q1117.55 75.74 1118.02 76.02Q1118.03 76.03 1118.04 76.04ZM1128.96 76.03Q1130.02 76.66 1131.51 76.66Q1133.25 76.66 1134.37 75.83Q1134.39 75.82 1134.4 75.81Q1134.79 75.51 1135.07 75.14Q1135.62 74.43 1135.8 73.44L1133.82 73.44Q1133.72 73.91 1133.44 74.24Q1133.29 74.46 1133.05 74.63Q1132.46 75.05 1131.48 75.05Q1130.56 75.05 1129.91 74.63Q1129.6 74.43 1129.35 74.14Q1128.57 73.22 1128.57 71.61Q1128.57 70 1129.35 69.07Q1129.61 68.77 1129.92 68.57Q1130.56 68.15 1131.48 68.15Q1132.46 68.15 1133.05 68.61Q1133.25 68.75 1133.4 68.94Q1133.71 69.32 1133.82 69.86L1135.8 69.86Q1135.61 68.72 1134.97 67.95Q1134.72 67.65 1134.4 67.4Q1134.35 67.37 1134.31 67.33Q1133.19 66.53 1131.51 66.53Q1130.02 66.53 1128.96 67.17Q1128.54 67.42 1128.19 67.75Q1127.67 68.26 1127.31 68.96Q1126.75 70.11 1126.75 71.61Q1126.75 73.11 1127.31 74.25Q1127.66 74.92 1128.17 75.42Q1128.52 75.76 1128.96 76.03ZM1064.35 66.7L1066.93 76.5L1069.06 76.5L1071.05 69.23L1073 76.5L1075.13 76.5L1077.79 66.7L1075.86 66.7L1074.09 74.49L1072.07 66.7L1070.1 66.7L1068.03 74.49L1066.27 66.7L1064.35 66.7ZM1079.09 66.7L1079.09 76.5L1085.49 76.5L1085.49 75.05L1080.88 75.05L1080.88 72.23L1085.06 72.23L1085.06 70.82L1080.88 70.82L1080.88 68.14L1085.49 68.14L1085.49 66.7L1079.09 66.7ZM1090.52 66.7L1090.52 76.5L1092.31 76.5L1092.31 66.7L1090.52 66.7ZM1094.21 66.7L1094.21 76.5L1096 76.5L1096 69.61L1100.61 76.5L1102.4 76.5L1102.4 66.7L1100.61 66.7L1100.61 73.6L1096 66.7L1094.21 66.7ZM1137.39 66.7L1137.39 76.5L1139.18 76.5L1139.18 66.7L1137.39 66.7ZM1144.04 66.7L1140.44 76.5L1142.32 76.5L1143.13 74.23L1146.94 74.23L1147.73 76.5L1149.64 76.5L1146.06 66.7L1144.04 66.7ZM1150.9 66.7L1150.9 76.5L1157.03 76.5L1157.03 75.09L1152.68 75.09L1152.68 66.7L1150.9 66.7ZM1122.23 74.63Q1121.54 75.05 1120.59 75.05Q1119.64 75.05 1118.94 74.63Q1118.62 74.43 1118.35 74.13Q1118.3 74.08 1118.25 74.02Q1117.51 73.11 1117.51 71.59Q1117.51 70.08 1118.25 69.17Q1118.3 69.11 1118.35 69.06Q1118.62 68.76 1118.94 68.56Q1119.64 68.14 1120.59 68.14Q1121.54 68.14 1122.23 68.56Q1122.55 68.76 1122.81 69.06Q1122.86 69.11 1122.91 69.16Q1123.65 70.07 1123.65 71.59Q1123.65 73.12 1122.91 74.03Q1122.86 74.08 1122.81 74.13Q1122.55 74.43 1122.23 74.63ZM1146.46 72.83L1143.62 72.83L1145.03 68.75L1146.46 72.83Z" fill="#F6F5EF" fill-opacity="1.000000" fill-rule="evenodd"/>
	<g clip-path="url(#clip62_40)">
		<path id="Vector" d="M1087.18 108.65L1089 108.65L1089 105.63C1088.12 105.54 1087.24 105.49 1086.36 105.5C1083.74 105.5 1081.94 107.07 1081.94 109.96L1081.94 112.45L1079 112.45L1079 115.83L1081.94 115.83L1081.94 124.5L1085.5 124.5L1085.5 115.83L1088.43 115.83L1088.88 112.45L1085.5 112.45L1085.5 110.29C1085.5 109.3 1085.77 108.65 1087.18 108.65Z" fill="#F6F5EF" fill-opacity="1.000000" fill-rule="nonzero"/>
	</g>
	<rect id="u:facebook-f" rx="5.500000" width="39.000000" height="39.000000" transform="translate(1064.500000 96.000000)" stroke="#F6F5EF" stroke-opacity="0.500000" stroke-width="1.000000"/>
	<g clip-path="url(#clip62_47)">
		<path id="Vector" d="M1144.81 109.61C1144.59 109.61 1144.38 109.67 1144.21 109.79C1144.03 109.91 1143.89 110.08 1143.81 110.28C1143.73 110.47 1143.71 110.69 1143.75 110.9C1143.79 111.11 1143.89 111.3 1144.04 111.45C1144.18 111.6 1144.39 111.71 1144.6 111.75C1144.8 111.79 1145.02 111.77 1145.22 111.69C1145.42 111.61 1145.59 111.47 1145.69 111.29C1145.81 111.11 1145.89 110.9 1145.89 110.69C1145.89 110.4 1145.77 110.13 1145.56 109.93C1145.37 109.72 1145.09 109.61 1144.81 109.61ZM1148.94 111.79C1148.93 111.04 1148.79 110.3 1148.53 109.6C1148.3 109 1147.94 108.46 1147.49 108.01C1147.04 107.55 1146.5 107.19 1145.9 106.97C1145.19 106.71 1144.46 106.56 1143.71 106.55C1142.75 106.5 1142.44 106.5 1140 106.5C1137.55 106.5 1137.25 106.5 1136.29 106.55C1135.54 106.56 1134.8 106.71 1134.1 106.97C1133.5 107.19 1132.96 107.55 1132.51 108.01C1132.05 108.45 1131.69 109 1131.48 109.6C1131.21 110.3 1131.06 111.04 1131.05 111.79C1131 112.74 1131 113.05 1131 115.5C1131 117.94 1131 118.25 1131.05 119.2C1131.06 119.95 1131.21 120.69 1131.48 121.39C1131.69 121.99 1132.05 122.54 1132.51 122.98C1132.96 123.44 1133.5 123.8 1134.1 124.02C1134.8 124.28 1135.54 124.43 1136.29 124.44C1137.25 124.5 1137.55 124.5 1140 124.5C1142.44 124.5 1142.75 124.5 1143.71 124.44C1144.46 124.43 1145.19 124.28 1145.9 124.02C1146.5 123.8 1147.04 123.44 1147.49 122.98C1147.94 122.54 1148.31 121.99 1148.53 121.39C1148.79 120.69 1148.93 119.95 1148.94 119.2C1148.94 118.25 1149 117.94 1149 115.5C1149 113.05 1149 112.74 1148.94 111.79ZM1147.32 119.1C1147.31 119.67 1147.22 120.23 1147.02 120.77C1146.88 121.16 1146.65 121.52 1146.34 121.8C1146.05 122.1 1145.69 122.33 1145.31 122.48C1144.77 122.68 1144.21 122.78 1143.64 122.79C1142.74 122.83 1142.4 122.84 1140.04 122.84C1137.67 122.84 1137.34 122.84 1136.43 122.79C1135.84 122.8 1135.25 122.71 1134.68 122.52C1134.31 122.36 1133.98 122.13 1133.69 121.84C1133.4 121.55 1133.17 121.2 1133.03 120.81C1132.81 120.26 1132.68 119.68 1132.67 119.1C1132.67 118.2 1132.62 117.86 1132.62 115.5C1132.62 113.13 1132.62 112.8 1132.67 111.9C1132.68 111.31 1132.78 110.73 1132.99 110.19C1133.15 109.81 1133.39 109.47 1133.69 109.2C1133.97 108.89 1134.31 108.64 1134.68 108.48C1135.24 108.28 1135.81 108.17 1136.4 108.17C1137.3 108.17 1137.63 108.12 1140 108.12C1142.37 108.12 1142.69 108.12 1143.6 108.17C1144.17 108.18 1144.74 108.28 1145.27 108.48C1145.68 108.63 1146.05 108.87 1146.34 109.2C1146.64 109.47 1146.87 109.81 1147.02 110.19C1147.22 110.73 1147.31 111.31 1147.32 111.9C1147.37 112.8 1147.38 113.13 1147.38 115.5C1147.38 117.86 1147.37 118.2 1147.32 119.1ZM1140 110.88C1139.09 110.88 1138.19 111.15 1137.43 111.66C1136.68 112.17 1136.09 112.89 1135.74 113.73C1135.39 114.58 1135.3 115.51 1135.48 116.4C1135.66 117.3 1136.1 118.12 1136.75 118.76C1137.39 119.41 1138.22 119.85 1139.11 120.02C1140.01 120.2 1140.93 120.11 1141.78 119.76C1142.62 119.41 1143.34 118.82 1143.85 118.06C1144.36 117.3 1144.63 116.41 1144.63 115.5C1144.63 114.89 1144.51 114.29 1144.28 113.72C1144.04 113.16 1143.69 112.65 1143.27 112.22C1142.84 111.8 1142.32 111.46 1141.77 111.22C1141.21 110.99 1140.61 110.88 1140 110.88ZM1140 118.49C1139.41 118.49 1138.82 118.32 1138.32 117.99C1137.84 117.66 1137.46 117.19 1137.23 116.64C1137 116.09 1136.93 115.49 1137.06 114.91C1137.18 114.33 1137.46 113.8 1137.88 113.38C1138.3 112.96 1138.82 112.67 1139.42 112.56C1140 112.44 1140.6 112.5 1141.15 112.73C1141.68 112.95 1142.16 113.34 1142.49 113.83C1142.81 114.32 1143 114.9 1143 115.5C1143 115.89 1142.92 116.28 1142.77 116.64C1142.62 117.01 1142.4 117.34 1142.12 117.61C1141.84 117.89 1141.51 118.11 1141.15 118.26C1140.78 118.41 1140.39 118.49 1140 118.49Z" fill="#F6F5EF" fill-opacity="1.000000" fill-rule="nonzero"/>
	</g>
	<rect id="u:instagram" rx="5.500000" width="39.000000" height="39.000000" transform="translate(1120.500000 96.000000)" stroke="#F6F5EF" stroke-opacity="0.500000" stroke-width="1.000000"/>
	<g clip-path="url(#clip62_52)">
		<g clip-path="url(#clip2_2)">
			<path id="Vector" d="M1201.15 109.25C1200.3 109.2 1198.55 109.15 1195.9 109.15L1195.55 109.15C1193 109.15 1191.3 109.2 1190.44 109.3C1189.3 109.4 1188.5 109.7 1188.05 110.1C1187.65 110.45 1187.35 111.1 1187.25 111.95C1187.19 112.5 1187.15 113.65 1187.15 115.4L1187.15 115.65C1187.15 117.3 1187.19 118.45 1187.3 119C1187.44 119.8 1187.69 120.4 1188.19 120.75C1188.69 121.15 1189.55 121.4 1190.75 121.5C1191.6 121.55 1193.35 121.6 1196 121.6L1196.35 121.6C1198.9 121.6 1200.6 121.55 1201.44 121.45C1202.6 121.35 1203.4 121.05 1203.85 120.65C1204.25 120.3 1204.55 119.65 1204.65 118.8C1204.69 118.25 1204.75 117.1 1204.75 115.35L1204.75 115.1C1204.75 113.45 1204.69 112.3 1204.6 111.75C1204.44 110.95 1204.19 110.35 1203.69 110C1203.19 109.6 1202.35 109.35 1201.15 109.25ZM1199.19 115.4L1193.69 118.7L1193.69 112.1L1199.19 115.4Z" fill="#F6F5EF" fill-opacity="1.000000" fill-rule="evenodd"/>
		</g>
	</g>
	<rect id="u:youtube" rx="5.500000" width="39.000000" height="39.000000" transform="translate(1176.500000 96.000000)" stroke="#F6F5EF" stroke-opacity="0.500000" stroke-width="1.000000"/>
	<g opacity="0.600000" filter="url(#filter_62_89_dd)">
		<circle id="Ellipse 7268" r="207.500000" transform="matrix(0.707107 -0.707107 0.708204 0.706008 432.677 465.272)" fill="#93ABAE" fill-opacity="1.000000"/>
	</g>
	<g opacity="0.300000" filter="url(#filter_62_90_dd)">
		<circle id="Ellipse 7270" r="158.500000" transform="matrix(0.707107 -0.707107 0.708204 0.706008 858.327 440.326)" fill="#A6A9B2" fill-opacity="1.000000"/>
	</g>
	<path id="About" d="M553.48 77.04Q554.58 77.66 556.03 77.66Q557.42 77.66 558.49 77.08Q558.54 77.05 558.59 77.02Q559.11 76.72 559.52 76.31Q559.98 75.84 560.31 75.24Q560.93 74.09 560.93 72.59Q560.93 71.1 560.31 69.96Q559.98 69.33 559.5 68.86Q559.09 68.46 558.59 68.17Q558.54 68.14 558.49 68.11Q557.42 67.53 556.03 67.53Q554.58 67.53 553.48 68.16Q553.47 68.16 553.46 68.17Q553 68.44 552.62 68.79Q552.1 69.29 551.73 69.96Q551.11 71.1 551.11 72.59Q551.11 74.09 551.73 75.24Q552.09 75.89 552.6 76.37Q552.99 76.74 553.46 77.02Q553.47 77.03 553.48 77.04ZM534.9 67.7L531.32 77.5L533.19 77.5L533.99 75.23L537.81 75.23L538.6 77.5L540.5 77.5L536.92 67.7L534.9 67.7ZM542.18 67.7L542.18 77.5L546.25 77.5Q547.8 77.5 548.64 76.74Q549.02 76.39 549.23 75.96Q549.48 75.45 549.48 74.82Q549.48 74.34 549.31 73.92Q549.18 73.57 548.93 73.27Q548.65 72.93 548.29 72.72Q547.95 72.52 547.54 72.44Q547.89 72.34 548.19 72.16Q548.5 71.97 548.75 71.69Q548.81 71.63 548.86 71.56Q549.25 71.03 549.25 70.21Q549.25 69.62 549.01 69.13Q548.81 68.73 548.44 68.4Q547.64 67.7 546.12 67.7L542.18 67.7ZM564.77 77.24Q565.64 77.66 566.71 77.66Q567.73 77.66 568.58 77.28Q568.63 77.26 568.68 77.24Q569.03 77.06 569.34 76.82Q569.78 76.46 570.09 75.94Q570.63 75.07 570.63 73.74L570.63 67.7L568.84 67.7L568.84 73.76Q568.84 74.9 568.28 75.46Q568.17 75.57 568.06 75.65Q567.54 76.03 566.75 76.03Q565.92 76.03 565.4 75.63Q565.3 75.55 565.22 75.46Q564.66 74.9 564.66 73.76L564.66 67.7L562.87 67.7L562.87 73.74Q562.87 75.07 563.38 75.94Q563.7 76.48 564.16 76.85Q564.44 77.08 564.76 77.24Q564.77 77.24 564.77 77.24ZM575.16 69.14L575.16 77.5L576.96 77.5L576.96 69.14L579.83 69.14L579.83 67.7L572.31 67.7L572.31 69.14L575.16 69.14ZM545.85 71.81L543.97 71.81L543.97 69.14L545.82 69.14Q546.62 69.14 547.02 69.5Q547.13 69.6 547.22 69.73Q547.42 70.04 547.42 70.47Q547.42 70.95 547.19 71.27Q547.11 71.37 547.01 71.46Q546.61 71.81 545.85 71.81ZM557.67 75.63Q556.98 76.05 556.03 76.05Q555.08 76.05 554.39 75.63Q554.06 75.43 553.78 75.13Q553.74 75.08 553.69 75.02Q552.95 74.11 552.95 72.59Q552.95 71.08 553.69 70.17Q553.74 70.11 553.78 70.06Q554.06 69.76 554.39 69.56Q555.08 69.14 556.03 69.14Q556.98 69.14 557.67 69.56Q557.99 69.76 558.26 70.06Q558.3 70.11 558.34 70.16Q559.09 71.07 559.09 72.59Q559.09 74.12 558.35 75.03Q558.3 75.08 558.26 75.13Q557.99 75.43 557.67 75.63ZM537.32 73.83L534.48 73.83L535.9 69.75L537.32 73.83ZM545.98 76.04L543.97 76.04L543.97 73.15L545.95 73.15Q546.72 73.15 547.18 73.53Q547.19 73.54 547.19 73.55Q547.35 73.68 547.45 73.84Q547.65 74.17 547.65 74.62Q547.65 75.1 547.43 75.43Q547.34 75.56 547.21 75.67Q546.77 76.04 545.98 76.04Z" fill="#F6F5EF" fill-opacity="1.000000" fill-rule="evenodd"/>
	<path id="Yachts" d="M625.55 77.03Q626.61 77.66 628.09 77.66Q629.84 77.66 630.96 76.83Q630.97 76.82 630.99 76.81Q631.38 76.51 631.67 76.14Q632.21 75.43 632.39 74.44L630.42 74.44Q630.31 74.91 630.04 75.24Q629.87 75.46 629.64 75.63Q629.05 76.05 628.07 76.05Q627.15 76.05 626.5 75.63Q626.19 75.43 625.94 75.14Q625.17 74.22 625.17 72.61Q625.17 71 625.94 70.07Q626.19 69.77 626.51 69.57Q627.16 69.15 628.07 69.15Q629.05 69.15 629.64 69.61Q629.83 69.75 629.98 69.94Q630.3 70.32 630.42 70.86L632.39 70.86Q632.19 69.72 631.56 68.95Q631.31 68.65 630.99 68.4Q630.94 68.37 630.89 68.33Q629.79 67.53 628.09 67.53Q626.61 67.53 625.55 68.17Q625.13 68.42 624.78 68.75Q624.26 69.26 623.91 69.96Q623.33 71.11 623.33 72.61Q623.33 74.11 623.91 75.25Q624.25 75.92 624.75 76.42Q625.11 76.76 625.55 77.03ZM654.71 77.29Q655.54 77.66 656.61 77.66Q657.73 77.66 658.5 77.27Q659.21 76.9 659.59 76.33Q659.63 76.27 659.66 76.21Q659.85 75.89 659.95 75.55Q660.06 75.18 660.06 74.78Q660.06 73.91 659.69 73.36Q659.57 73.18 659.43 73.02Q659.13 72.7 658.73 72.47Q658.13 72.13 657.4 71.88Q656.71 71.66 656.18 71.46Q655.65 71.26 655.34 70.98Q655.26 70.9 655.2 70.81Q655.03 70.56 655.03 70.2Q655.03 69.81 655.21 69.55Q655.3 69.42 655.43 69.33Q655.49 69.28 655.55 69.25Q655.91 69.03 656.42 69.04Q656.99 69.04 657.35 69.31Q657.42 69.37 657.49 69.44Q657.73 69.68 657.82 69.98Q657.88 70.16 657.89 70.35L659.8 70.35Q659.78 69.57 659.43 68.98Q659.39 68.92 659.35 68.86Q659.25 68.71 659.14 68.58Q658.75 68.15 658.17 67.88Q657.43 67.53 656.44 67.53Q655.48 67.53 654.74 67.87Q654.18 68.13 653.79 68.55Q653.67 68.69 653.57 68.84Q653.51 68.92 653.46 69.01Q653.14 69.58 653.16 70.33Q653.16 71.15 653.54 71.7Q653.63 71.84 653.75 71.96Q654.34 72.58 655.48 72.97Q656.18 73.21 656.79 73.42Q657.41 73.63 657.78 73.97Q657.87 74.05 657.94 74.14Q658.15 74.44 658.15 74.9Q658.15 75.23 658.01 75.49Q657.91 75.68 657.73 75.82Q657.31 76.17 656.6 76.17Q655.9 76.17 655.46 75.83Q655.38 75.77 655.3 75.7Q655.09 75.49 654.97 75.24Q654.82 74.92 654.81 74.54L652.92 74.54Q652.93 75.5 653.37 76.18Q653.39 76.21 653.4 76.23Q653.52 76.4 653.66 76.55Q654.09 77.01 654.71 77.29ZM608.48 74.01L608.48 77.5L610.27 77.5L610.27 74.01L613.55 67.7L611.55 67.7L609.39 72.22L607.22 67.7L605.19 67.7L608.48 74.01ZM616.94 67.7L613.35 77.5L615.23 77.5L616.03 75.23L619.85 75.23L620.63 77.5L622.54 77.5L618.95 67.7L616.94 67.7ZM634.4 67.7L634.4 77.5L636.19 77.5L636.19 73.23L640.58 73.23L640.58 77.5L642.37 77.5L642.37 67.7L640.58 67.7L640.58 71.77L636.19 71.77L636.19 67.7L634.4 67.7ZM646.98 69.14L646.98 77.5L648.77 77.5L648.77 69.14L651.64 69.14L651.64 67.7L644.13 67.7L644.13 69.14L646.98 69.14ZM619.36 73.83L616.52 73.83L617.93 69.75L619.36 73.83Z" fill="#F6F5EF" fill-opacity="1.000000" fill-rule="evenodd"/>
	<path id="Reviews" d="M742.31 77.29Q743.14 77.66 744.21 77.66Q745.33 77.66 746.1 77.27Q746.81 76.9 747.19 76.33Q747.23 76.27 747.27 76.21Q747.45 75.89 747.55 75.55Q747.66 75.18 747.66 74.78Q747.66 73.91 747.29 73.36Q747.17 73.18 747.03 73.02Q746.73 72.7 746.33 72.47Q745.73 72.13 745 71.88Q744.31 71.66 743.78 71.46Q743.25 71.26 742.94 70.98Q742.86 70.9 742.8 70.81Q742.63 70.56 742.63 70.2Q742.63 69.81 742.82 69.55Q742.9 69.42 743.03 69.33Q743.09 69.28 743.15 69.25Q743.52 69.03 744.02 69.04Q744.59 69.04 744.95 69.31Q745.02 69.37 745.09 69.44Q745.33 69.68 745.42 69.98Q745.48 70.16 745.49 70.35L747.41 70.35Q747.38 69.57 747.03 68.98Q746.99 68.92 746.95 68.86Q746.85 68.71 746.74 68.58Q746.35 68.15 745.78 67.88Q745.03 67.53 744.05 67.53Q743.08 67.53 742.34 67.87Q741.78 68.13 741.4 68.55Q741.27 68.69 741.17 68.84Q741.11 68.92 741.06 69.01Q740.75 69.58 740.76 70.33Q740.76 71.15 741.14 71.7Q741.23 71.84 741.35 71.96Q741.95 72.58 743.08 72.97Q743.78 73.21 744.4 73.42Q745.01 73.63 745.38 73.97Q745.47 74.05 745.54 74.14Q745.76 74.44 745.76 74.9Q745.76 75.23 745.62 75.49Q745.51 75.68 745.33 75.82Q744.91 76.17 744.2 76.17Q743.5 76.17 743.06 75.83Q742.98 75.77 742.9 75.7Q742.7 75.49 742.58 75.24Q742.42 74.92 742.41 74.54L740.52 74.54Q740.53 75.5 740.98 76.18Q740.99 76.21 741.01 76.23Q741.13 76.4 741.26 76.55Q741.69 77.01 742.31 77.29ZM685.95 67.7L685.95 77.5L687.74 77.5L687.74 73.63L689.22 73.63L691.04 77.5L693.1 77.5L691.07 73.39Q691.94 73.1 692.4 72.5Q692.47 72.41 692.53 72.32Q692.74 71.98 692.86 71.61Q693 71.17 693 70.68Q693 70.08 692.81 69.57Q692.73 69.36 692.62 69.17Q692.55 69.04 692.46 68.91Q692.1 68.41 691.48 68.1Q690.72 67.7 689.54 67.7L685.95 67.7ZM695.09 67.7L695.09 77.5L701.49 77.5L701.49 76.05L696.88 76.05L696.88 73.23L701.07 73.23L701.07 71.82L696.88 71.82L696.88 69.14L701.49 69.14L701.49 67.7L695.09 67.7ZM702.86 67.7L706.44 77.5L708.64 77.5L712.23 67.7L710.34 67.7L707.55 75.66L704.78 67.7L702.86 67.7ZM713.81 67.7L713.81 77.5L715.6 77.5L715.6 67.7L713.81 67.7ZM717.93 67.7L717.93 77.5L724.32 77.5L724.32 76.05L719.72 76.05L719.72 73.23L723.9 73.23L723.9 71.82L719.72 71.82L719.72 69.14L724.32 69.14L724.32 67.7L717.93 67.7ZM725.83 67.7L728.42 77.5L730.54 77.5L732.54 70.23L734.49 77.5L736.61 77.5L739.27 67.7L737.34 67.7L735.58 75.49L733.56 67.7L731.59 67.7L729.52 75.49L727.75 67.7L725.83 67.7ZM689.43 72.31L687.74 72.31L687.74 69.19L689.42 69.19Q690.34 69.19 690.75 69.61Q690.84 69.7 690.91 69.81Q691.17 70.18 691.17 70.73Q691.17 71.29 690.91 71.68Q690.84 71.79 690.75 71.88Q690.33 72.31 689.43 72.31Z" fill="#F6F5EF" fill-opacity="1.000000" fill-rule="evenodd"/>
	<rect id="fontisto:yacht" width="23.000000" height="23.000000" transform="translate(0.000000 64.500000)" fill="#FFFFFF" fill-opacity="0"/>
	<g clip-path="url(#clip3500_27)">
		<mask id="mask3500_28" mask-type="alpha" maskUnits="userSpaceOnUse" x="0.000000" y="64.500000" width="22.587921" height="23.000000">
			<path id="Vector" d="M0 82.91L5.18 87.5L20.4 87.5L22.58 84.43L0 82.91L0 82.91ZM13.4 64.5L13.4 82.77L20.4 83.26L13.4 64.5ZM12.44 67.58L2.32 81.98L12.44 82.66L12.44 67.58Z" fill="#000000" fill-opacity="1.000000" fill-rule="nonzero"/>
		</mask>
		<g mask="url(#mask3500_28)">
			<path id="Rectangle 1" d="M0 64.5L23 64.5L23 87.5L0 87.5L0 64.5Z" fill="url(#paint_linear_3500_29_0)" fill-opacity="1.000000" fill-rule="nonzero"/>
		</g>
	</g>
	<path id="yacht Adventures" d="M60.51 82.51Q58.6 82.51 57.24 81.7C56.32 81.15 55.62 80.39 55.13 79.41Q54.39 77.94 54.39 76.01Q54.39 74.09 55.13 72.61C55.62 71.63 56.32 70.86 57.24 70.31Q58.6 69.48 60.51 69.48Q62.67 69.48 64.08 70.51L64.08 70.51Q64.15 70.56 64.22 70.61C65.19 71.36 65.8 72.41 66.04 73.76L63.5 73.76C63.34 73.08 63.01 72.54 62.49 72.16Q61.74 71.57 60.48 71.57C59.31 71.57 58.4 71.96 57.74 72.75Q56.75 73.94 56.75 76.01Q56.75 78.08 57.74 79.27Q58.06 79.64 58.45 79.9Q59.29 80.44 60.48 80.44C61.32 80.44 61.99 80.26 62.49 79.9C63.01 79.53 63.34 79.02 63.5 78.37L66.04 78.37C65.8 79.67 65.19 80.68 64.22 81.41Q64.21 81.42 64.21 81.42Q64.2 81.42 64.2 81.43Q62.76 82.51 60.51 82.51ZM212.5 82.51C211.58 82.51 210.76 82.35 210.05 82.04C209.34 81.72 208.79 81.26 208.38 80.67C207.97 80.08 207.76 79.35 207.75 78.5L210.18 78.5C210.2 79.08 210.41 79.58 210.81 79.99Q210.89 80.07 210.99 80.14Q211.57 80.58 212.48 80.58C213.09 80.58 213.58 80.44 213.94 80.15C214.3 79.85 214.48 79.46 214.48 78.96C214.48 78.45 214.32 78.05 213.99 77.76C213.68 77.47 213.26 77.24 212.73 77.06C212.21 76.88 211.64 76.68 211.04 76.48C210.07 76.14 209.33 75.71 208.81 75.18Q208.67 75.04 208.55 74.87L208.55 74.87Q208.05 74.15 208.05 73.08C208.05 73.06 208.05 73.03 208.05 73.01Q208.05 72.06 208.47 71.34Q208.52 71.26 208.58 71.17Q208.74 70.94 208.93 70.74L208.93 70.74L208.93 70.74Q209.41 70.24 210.09 69.93C210.72 69.63 211.46 69.48 212.28 69.48C213.12 69.48 213.86 69.63 214.5 69.93Q215.29 70.3 215.8 70.9L215.8 70.9L215.8 70.9Q215.91 71.04 216.01 71.19C216.38 71.73 216.58 72.37 216.6 73.12L214.14 73.12C214.13 72.67 213.95 72.28 213.62 71.94C213.29 71.6 212.84 71.42 212.25 71.42C211.74 71.41 211.32 71.54 210.97 71.8Q210.82 71.92 210.71 72.07L210.71 72.07Q210.47 72.41 210.47 72.92C210.47 73.34 210.6 73.67 210.86 73.92Q211.26 74.29 211.94 74.54C212.4 74.71 212.92 74.88 213.51 75.08C214.13 75.29 214.7 75.54 215.22 75.83Q215.71 76.11 216.08 76.5Q216.29 76.72 216.46 76.98C216.77 77.45 216.93 78.06 216.93 78.8Q216.93 79.32 216.79 79.79Q216.67 80.23 216.42 80.64Q216.38 80.71 216.34 80.78Q215.84 81.53 214.93 82.01C214.27 82.34 213.46 82.51 212.5 82.51ZM35.29 82.29L35.29 77.81L31.06 69.69L33.67 69.69L36.46 75.51L39.23 69.69L41.81 69.69L37.6 77.81L37.6 82.29L35.29 82.29ZM41.55 82.29L46.16 69.69L48.75 69.69L53.36 82.29L50.91 82.29L49.91 79.38L44.99 79.38L43.97 82.29L41.55 82.29ZM68.62 82.29L68.62 69.69L70.92 69.69L70.92 74.93L76.57 74.93L76.57 69.69L78.88 69.69L78.88 82.29L76.57 82.29L76.57 76.81L70.92 76.81L70.92 82.29L68.62 82.29ZM84.8 82.29L84.8 71.55L81.13 71.55L81.13 69.69L90.79 69.69L90.79 71.55L87.1 71.55L87.1 82.29L84.8 82.29ZM97.06 82.29L101.67 69.69L104.26 69.69L108.87 82.29L106.42 82.29L105.41 79.38L100.5 79.38L99.47 82.29L97.06 82.29ZM111.03 82.29L111.03 69.69L115.33 69.69C116.81 69.69 118.02 69.96 118.97 70.49Q119.82 70.95 120.41 71.63Q120.81 72.1 121.09 72.68C121.56 73.62 121.8 74.72 121.8 76C121.8 77.27 121.56 78.38 121.09 79.33Q120.85 79.83 120.5 80.26L120.5 80.26Q119.89 81.02 118.97 81.52C118.02 82.04 116.81 82.29 115.33 82.29L111.03 82.29ZM127.6 82.29L122.99 69.69L125.46 69.69L129.02 79.94L132.6 69.69L135.03 69.69L130.43 82.29L127.6 82.29ZM137.07 82.29L137.07 69.69L145.3 69.69L145.3 71.55L139.38 71.55L139.38 75L144.76 75L144.76 76.81L139.38 76.81L139.38 80.44L145.3 80.44L145.3 82.29L137.07 82.29ZM148.02 82.29L148.02 69.69L150.32 69.69L156.24 78.57L156.24 69.69L158.55 69.69L158.55 82.29L156.24 82.29L150.32 73.44L150.32 82.29L148.02 82.29ZM164.46 82.29L164.46 71.55L160.79 71.55L160.79 69.69L170.46 69.69L170.46 71.55L166.77 71.55L166.77 82.29L164.46 82.29ZM177.57 82.51Q176.18 82.51 175.06 81.97C174.32 81.6 173.73 81.04 173.28 80.3Q172.63 79.18 172.63 77.47L172.63 69.69L174.94 69.69L174.94 77.49C174.94 78.47 175.17 79.21 175.64 79.68C176.12 80.16 176.78 80.4 177.62 80.4C178.45 80.4 179.1 80.16 179.58 79.68C180.06 79.21 180.3 78.47 180.3 77.49L180.3 69.69L182.61 69.69L182.61 77.47C182.61 78.61 182.38 79.55 181.92 80.3Q181.53 80.93 180.99 81.39Q180.58 81.73 180.09 81.97C179.33 82.33 178.49 82.51 177.57 82.51ZM185.5 82.29L185.5 69.69L190.12 69.69C191.13 69.69 191.96 69.87 192.61 70.22C193.27 70.55 193.76 71.01 194.08 71.6Q194.2 71.81 194.29 72.02Q194.57 72.72 194.57 73.53C194.57 74.3 194.37 75 193.96 75.63C193.56 76.27 192.94 76.73 192.09 77.02L194.7 82.29L192.05 82.29L189.71 77.33L187.8 77.33L187.8 82.29L185.5 82.29ZM197.25 82.29L197.25 69.69L205.48 69.69L205.48 71.55L199.56 71.55L199.56 75L204.94 75L204.94 76.81L199.56 76.81L199.56 80.44L205.48 80.44L205.48 82.29L197.25 82.29ZM187.8 75.63L189.98 75.63C190.75 75.63 191.31 75.45 191.67 75.08C192.03 74.71 192.21 74.21 192.21 73.6C192.21 73 192.03 72.52 191.67 72.16C191.32 71.8 190.75 71.62 189.96 71.62L187.8 71.62L187.8 75.63ZM113.34 80.31L115.23 80.31C116.28 80.31 117.12 80.15 117.73 79.81C118.34 79.46 118.78 78.97 119.04 78.33C119.31 77.69 119.44 76.91 119.44 76C119.44 75.1 119.31 74.32 119.04 73.67C118.78 73.02 118.34 72.53 117.73 72.18Q116.81 71.66 115.23 71.66L113.34 71.66L113.34 80.31ZM45.62 77.58L49.28 77.58L47.44 72.34L45.62 77.58ZM101.13 77.58L104.78 77.58L102.95 72.34L101.13 77.58Z" fill="#F6F5EF" fill-opacity="1.000000" fill-rule="evenodd"/>
</svg>
