<svg width="217.000000" height="23.000000" viewBox="0 0 217 23" fill="none" xmlns="http://www.w3.org/2000/svg" xmlns:xlink="http://www.w3.org/1999/xlink">
	<desc>
			Created with Pixso.
	</desc>
	<defs>
		<clipPath id="clip3500_27">
			<rect id="fontisto:yacht" width="23.000000" height="23.000000" fill="white" fill-opacity="0"/>
		</clipPath>
		<linearGradient x1="9.793955" y1="0.000010" x2="21.420328" y2="3.631589" id="paint_linear_3500_29_0" gradientUnits="userSpaceOnUse">
			<stop stop-color="#BEC7C2"/>
			<stop offset="1.000000" stop-color="#A1B5BA"/>
		</linearGradient>
	</defs>
	<rect id="fontisto:yacht" width="23.000000" height="23.000000" fill="#FFFFFF" fill-opacity="0"/>
	<g clip-path="url(#clip3500_27)">
		<mask id="mask3500_28" mask-type="alpha" maskUnits="userSpaceOnUse" x="0.000000" y="0.000000" width="22.587921" height="23.000000">
			<path id="Vector" d="M0 18.41L5.18 23L20.4 23L22.58 19.93L0 18.41L0 18.41ZM13.4 0L13.4 18.27L20.4 18.76L13.4 0ZM12.44 3.08L2.32 17.48L12.44 18.16L12.44 3.08Z" fill="#000000" fill-opacity="1.000000" fill-rule="nonzero"/>
		</mask>
		<g mask="url(#mask3500_28)">
			<path id="Rectangle 1" d="M0 0L23 0L23 23L0 23L0 0Z" fill="url(#paint_linear_3500_29_0)" fill-opacity="1.000000" fill-rule="nonzero"/>
		</g>
	</g>
	<path id="yacht Adventures" d="M60.51 18.01Q58.6 18.01 57.24 17.2C56.32 16.65 55.62 15.89 55.13 14.91Q54.39 13.44 54.39 11.51Q54.39 9.59 55.13 8.11C55.62 7.13 56.32 6.36 57.24 5.81Q58.6 4.98 60.51 4.98Q62.67 4.98 64.08 6.01L64.08 6.01Q64.15 6.06 64.22 6.11C65.19 6.86 65.8 7.91 66.04 9.26L63.5 9.26C63.34 8.58 63.01 8.04 62.49 7.66Q61.74 7.07 60.48 7.07C59.31 7.07 58.4 7.46 57.74 8.25Q56.75 9.44 56.75 11.51Q56.75 13.58 57.74 14.77Q58.06 15.14 58.45 15.4Q59.29 15.94 60.48 15.94C61.32 15.94 61.99 15.76 62.49 15.4C63.01 15.03 63.34 14.52 63.5 13.87L66.04 13.87C65.8 15.17 65.19 16.18 64.22 16.91Q64.21 16.92 64.21 16.92Q64.2 16.92 64.2 16.93Q62.76 18.01 60.51 18.01ZM212.5 18.01C211.58 18.01 210.76 17.85 210.05 17.54C209.34 17.22 208.79 16.76 208.38 16.17C207.97 15.58 207.76 14.85 207.75 14L210.18 14C210.2 14.58 210.41 15.08 210.81 15.49Q210.89 15.57 210.99 15.64Q211.57 16.08 212.48 16.08C213.09 16.08 213.58 15.94 213.94 15.65C214.3 15.35 214.48 14.96 214.48 14.46C214.48 13.95 214.32 13.55 213.99 13.26C213.68 12.97 213.26 12.74 212.73 12.56C212.21 12.38 211.64 12.18 211.04 11.98C210.07 11.64 209.33 11.21 208.81 10.68Q208.67 10.54 208.55 10.37L208.55 10.37Q208.05 9.65 208.05 8.58C208.05 8.56 208.05 8.53 208.05 8.51Q208.05 7.56 208.47 6.84Q208.52 6.76 208.58 6.67Q208.74 6.44 208.93 6.24L208.93 6.24L208.93 6.24Q209.41 5.74 210.09 5.43C210.72 5.13 211.46 4.98 212.28 4.98C213.12 4.98 213.86 5.13 214.5 5.43Q215.29 5.8 215.8 6.4L215.8 6.4L215.8 6.4Q215.91 6.54 216.01 6.69C216.38 7.23 216.58 7.87 216.6 8.62L214.14 8.62C214.13 8.17 213.95 7.78 213.62 7.44C213.29 7.1 212.84 6.92 212.25 6.92C211.74 6.91 211.32 7.04 210.97 7.3Q210.82 7.42 210.71 7.57L210.71 7.57Q210.47 7.91 210.47 8.42C210.47 8.84 210.6 9.17 210.86 9.42Q211.26 9.79 211.94 10.04C212.4 10.21 212.92 10.38 213.51 10.58C214.13 10.79 214.7 11.04 215.22 11.33Q215.71 11.61 216.08 12Q216.29 12.22 216.46 12.48C216.77 12.95 216.93 13.56 216.93 14.3Q216.93 14.82 216.79 15.29Q216.67 15.73 216.42 16.14Q216.38 16.21 216.34 16.28Q215.84 17.03 214.93 17.51C214.27 17.84 213.46 18.01 212.5 18.01ZM35.29 17.79L35.29 13.31L31.06 5.19L33.67 5.19L36.46 11.01L39.23 5.19L41.81 5.19L37.6 13.31L37.6 17.79L35.29 17.79ZM41.55 17.79L46.16 5.19L48.75 5.19L53.36 17.79L50.91 17.79L49.91 14.88L44.99 14.88L43.97 17.79L41.55 17.79ZM68.62 17.79L68.62 5.19L70.92 5.19L70.92 10.43L76.57 10.43L76.57 5.19L78.88 5.19L78.88 17.79L76.57 17.79L76.57 12.31L70.92 12.31L70.92 17.79L68.62 17.79ZM84.8 17.79L84.8 7.05L81.13 7.05L81.13 5.19L90.79 5.19L90.79 7.05L87.1 7.05L87.1 17.79L84.8 17.79ZM97.06 17.79L101.67 5.19L104.26 5.19L108.87 17.79L106.42 17.79L105.41 14.88L100.5 14.88L99.47 17.79L97.06 17.79ZM111.03 17.79L111.03 5.19L115.33 5.19C116.81 5.19 118.02 5.46 118.97 5.99Q119.82 6.45 120.41 7.13Q120.81 7.6 121.09 8.18C121.56 9.12 121.8 10.22 121.8 11.5C121.8 12.77 121.56 13.88 121.09 14.83Q120.85 15.33 120.5 15.76L120.5 15.76Q119.89 16.52 118.97 17.02C118.02 17.54 116.81 17.79 115.33 17.79L111.03 17.79ZM127.6 17.79L122.99 5.19L125.46 5.19L129.02 15.44L132.6 5.19L135.03 5.19L130.43 17.79L127.6 17.79ZM137.07 17.79L137.07 5.19L145.3 5.19L145.3 7.05L139.38 7.05L139.38 10.5L144.76 10.5L144.76 12.31L139.38 12.31L139.38 15.94L145.3 15.94L145.3 17.79L137.07 17.79ZM148.02 17.79L148.02 5.19L150.32 5.19L156.24 14.07L156.24 5.19L158.55 5.19L158.55 17.79L156.24 17.79L150.32 8.94L150.32 17.79L148.02 17.79ZM164.46 17.79L164.46 7.05L160.79 7.05L160.79 5.19L170.46 5.19L170.46 7.05L166.77 7.05L166.77 17.79L164.46 17.79ZM177.57 18.01Q176.18 18.01 175.06 17.47C174.32 17.1 173.73 16.54 173.28 15.8Q172.63 14.68 172.63 12.97L172.63 5.19L174.94 5.19L174.94 12.99C174.94 13.97 175.17 14.71 175.64 15.18C176.12 15.66 176.78 15.9 177.62 15.9C178.45 15.9 179.1 15.66 179.58 15.18C180.06 14.71 180.3 13.97 180.3 12.99L180.3 5.19L182.61 5.19L182.61 12.97C182.61 14.11 182.38 15.05 181.92 15.8Q181.53 16.43 180.99 16.89Q180.58 17.23 180.09 17.47C179.33 17.83 178.49 18.01 177.57 18.01ZM185.5 17.79L185.5 5.19L190.12 5.19C191.13 5.19 191.96 5.37 192.61 5.72C193.27 6.05 193.76 6.52 194.08 7.1Q194.2 7.31 194.29 7.52Q194.57 8.22 194.57 9.03C194.57 9.8 194.37 10.5 193.96 11.13C193.56 11.77 192.94 12.23 192.09 12.52L194.7 17.79L192.05 17.79L189.71 12.83L187.8 12.83L187.8 17.79L185.5 17.79ZM197.25 17.79L197.25 5.19L205.48 5.19L205.48 7.05L199.56 7.05L199.56 10.5L204.94 10.5L204.94 12.31L199.56 12.31L199.56 15.94L205.48 15.94L205.48 17.79L197.25 17.79ZM187.8 11.13L189.98 11.13C190.75 11.13 191.31 10.95 191.67 10.58C192.03 10.21 192.21 9.71 192.21 9.1C192.21 8.5 192.03 8.02 191.67 7.66C191.32 7.3 190.75 7.12 189.96 7.12L187.8 7.12L187.8 11.13ZM113.34 15.81L115.23 15.81C116.28 15.81 117.12 15.65 117.73 15.31C118.34 14.96 118.78 14.47 119.04 13.83C119.31 13.19 119.44 12.41 119.44 11.5C119.44 10.6 119.31 9.82 119.04 9.17C118.78 8.52 118.34 8.03 117.73 7.68Q116.81 7.16 115.23 7.16L113.34 7.16L113.34 15.81ZM45.62 13.08L49.28 13.08L47.44 7.84L45.62 13.08ZM101.13 13.08L104.78 13.08L102.95 7.84L101.13 13.08Z" fill="#F6F5EF" fill-opacity="1.000000" fill-rule="evenodd"/>
</svg>
