<svg width="24.000000" height="24.000000" viewBox="0 0 24 24" fill="none" xmlns="http://www.w3.org/2000/svg" xmlns:xlink="http://www.w3.org/1999/xlink">
	<desc>
			Created with Pixso.
	</desc>
	<defs>
		<clipPath id="clip92_1507">
			<rect id="gg:menu-left" rx="-0.500000" width="23.000000" height="23.000000" transform="translate(0.500000 0.500000)" fill="white" fill-opacity="0"/>
		</clipPath>
	</defs>
	<rect id="gg:menu-left" rx="-0.500000" width="23.000000" height="23.000000" transform="translate(0.500000 0.500000)" fill="#FFFFFF" fill-opacity="0"/>
	<g clip-path="url(#clip92_1507)">
		<path id="Vector" d="M2 5.99C2 5.44 2.44 5 2.99 5L11 5C11.26 5 11.52 5.1 11.7 5.29C11.89 5.47 12 5.73 12 5.99C12 6.25 11.89 6.51 11.7 6.69C11.52 6.88 11.26 6.98 11 6.98L2.99 6.98C2.73 6.98 2.47 6.88 2.29 6.69C2.1 6.51 2 6.25 2 5.99ZM2 12C2 11.45 2.44 11 2.99 11L21 11C21.26 11 21.52 11.1 21.7 11.29C21.89 11.48 22 11.73 22 12C22 12.26 21.89 12.51 21.7 12.7C21.52 12.89 21.26 12.99 21 12.99L2.99 12.99C2.73 12.99 2.47 12.89 2.29 12.7C2.1 12.51 2 12.26 2 12ZM2.99 17.01C2.73 17.01 2.47 17.11 2.29 17.3C2.1 17.48 2 17.74 2 18C2 18.26 2.1 18.52 2.29 18.7C2.47 18.89 2.73 19 2.99 19L15 19C15.26 19 15.52 18.89 15.7 18.7C15.89 18.52 16 18.26 16 18C16 17.74 15.89 17.48 15.7 17.3C15.52 17.11 15.26 17.01 15 17.01L2.99 17.01Z" fill="#F6F5EF" fill-opacity="1.000000" fill-rule="nonzero"/>
	</g>
</svg>
